<?xml version="1.0" encoding="UTF-8"?>
<svg xmlns="http://www.w3.org/2000/svg" xmlns:xlink="http://www.w3.org/1999/xlink" width="432" height="57" viewBox="0 0 432 57">
<defs>
<g>
<g id="glyph-0-0">
<path d="M 1.441406 0 L 1.441406 -12.882812 L 3.148438 -12.882812 L 3.148438 -7.59375 L 9.84375 -7.59375 L 9.84375 -12.882812 L 11.546875 -12.882812 L 11.546875 0 L 9.84375 0 L 9.84375 -6.074219 L 3.148438 -6.074219 L 3.148438 0 Z M 1.441406 0 "/>
</g>
<g id="glyph-0-1">
<path d="M 1.195312 -11.066406 L 1.195312 -12.882812 L 2.777344 -12.882812 L 2.777344 -11.066406 L 1.195312 -11.066406 M 1.195312 0 L 1.195312 -9.335938 L 2.777344 -9.335938 L 2.777344 0 Z M 1.195312 0 "/>
</g>
<g id="glyph-0-2">
<path d="M 0.898438 0.773438 L 2.433594 1 C 2.5 1.476562 2.675781 1.820312 2.96875 2.039062 C 3.363281 2.332031 3.898438 2.476562 4.578125 2.476562 C 5.3125 2.476562 5.875 2.332031 6.273438 2.039062 C 6.671875 1.746094 6.945312 1.335938 7.085938 0.808594 C 7.164062 0.488281 7.203125 -0.191406 7.199219 -1.222656 C 6.507812 -0.40625 5.644531 0 4.613281 0 C 3.332031 0 2.335938 -0.464844 1.632812 -1.390625 C 0.929688 -2.3125 0.578125 -3.425781 0.578125 -4.71875 C 0.578125 -5.609375 0.742188 -6.433594 1.0625 -7.183594 C 1.386719 -7.9375 1.851562 -8.519531 2.464844 -8.929688 C 3.078125 -9.339844 3.796875 -9.546875 4.625 -9.546875 C 5.722656 -9.546875 6.632812 -9.097656 7.347656 -8.210938 L 7.347656 -9.335938 L 8.804688 -9.335938 L 8.804688 -1.265625 C 8.804688 0.1875 8.660156 1.21875 8.363281 1.824219 C 8.066406 2.429688 7.597656 2.910156 6.957031 3.261719 C 6.316406 3.613281 5.523438 3.789062 4.585938 3.789062 C 3.472656 3.789062 2.574219 3.539062 1.890625 3.035156 C 1.203125 2.535156 0.871094 1.78125 0.898438 0.773438 M 2.207031 -4.835938 C 2.207031 -3.609375 2.449219 -2.714844 2.9375 -2.152344 C 3.421875 -1.589844 4.03125 -1.308594 4.765625 -1.308594 C 5.488281 -1.308594 6.101562 -1.589844 6.59375 -2.148438 C 7.082031 -2.707031 7.328125 -3.585938 7.328125 -4.78125 C 7.328125 -5.921875 7.078125 -6.785156 6.570312 -7.367188 C 6.0625 -7.945312 5.453125 -8.234375 4.738281 -8.234375 C 4.035156 -8.234375 3.4375 -7.949219 2.945312 -7.378906 C 2.453125 -6.808594 2.207031 -5.960938 2.207031 -4.835938 Z M 2.207031 -4.835938 "/>
</g>
<g id="glyph-0-3">
<path d="M 1.1875 0 L 1.1875 -12.882812 L 2.769531 -12.882812 L 2.769531 -8.261719 C 3.507812 -9.117188 4.4375 -9.546875 5.5625 -9.546875 C 6.253906 -9.546875 6.855469 -9.410156 7.367188 -9.136719 C 7.875 -8.863281 8.238281 -8.488281 8.460938 -8.007812 C 8.679688 -7.527344 8.789062 -6.828125 8.789062 -5.914062 L 8.789062 0 L 7.207031 0 L 7.207031 -5.914062 C 7.207031 -6.707031 7.035156 -7.28125 6.691406 -7.640625 C 6.351562 -8.003906 5.863281 -8.183594 5.238281 -8.183594 C 4.769531 -8.183594 4.328125 -8.0625 3.914062 -7.816406 C 3.503906 -7.574219 3.207031 -7.246094 3.03125 -6.828125 C 2.855469 -6.414062 2.769531 -5.839844 2.769531 -5.105469 L 2.769531 0 Z M 1.1875 0 "/>
</g>
<g id="glyph-0-4">
</g>
<g id="glyph-0-5">
<path d="M -0.0273438 0 L 4.921875 -12.882812 L 6.757812 -12.882812 L 12.03125 0 L 10.089844 0 L 8.585938 -3.902344 L 3.199219 -3.902344 L 1.785156 0 L -0.0273438 0 M 3.691406 -5.289062 L 8.058594 -5.289062 L 6.714844 -8.859375 C 6.304688 -9.941406 6 -10.832031 5.800781 -11.53125 C 5.636719 -10.703125 5.40625 -9.882812 5.105469 -9.070312 Z M 3.691406 -5.289062 "/>
</g>
<g id="glyph-0-6">
<path d="M 1.1875 0 L 1.1875 -9.335938 L 2.601562 -9.335938 L 2.601562 -8.023438 C 2.894531 -8.480469 3.285156 -8.847656 3.769531 -9.128906 C 4.257812 -9.40625 4.808594 -9.546875 5.429688 -9.546875 C 6.121094 -9.546875 6.691406 -9.402344 7.132812 -9.113281 C 7.574219 -8.828125 7.886719 -8.425781 8.070312 -7.910156 C 8.804688 -9 9.765625 -9.546875 10.953125 -9.546875 C 11.875 -9.546875 12.589844 -9.289062 13.085938 -8.777344 C 13.585938 -8.261719 13.835938 -7.472656 13.835938 -6.40625 L 13.835938 0 L 12.261719 0 L 12.261719 -5.878906 C 12.261719 -6.511719 12.210938 -6.96875 12.105469 -7.246094 C 12.003906 -7.523438 11.816406 -7.75 11.546875 -7.917969 C 11.277344 -8.089844 10.960938 -8.171875 10.601562 -8.171875 C 9.941406 -8.171875 9.398438 -7.957031 8.964844 -7.519531 C 8.53125 -7.082031 8.3125 -6.382812 8.3125 -5.421875 L 8.3125 0 L 6.734375 0 L 6.734375 -6.0625 C 6.734375 -6.765625 6.601562 -7.292969 6.34375 -7.648438 C 6.085938 -7.996094 5.664062 -8.171875 5.078125 -8.171875 C 4.632812 -8.171875 4.222656 -8.054688 3.84375 -7.820312 C 3.46875 -7.585938 3.191406 -7.246094 3.023438 -6.792969 C 2.851562 -6.34375 2.769531 -5.691406 2.769531 -4.84375 L 2.769531 0 Z M 1.1875 0 "/>
</g>
<g id="glyph-0-7">
<path d="M 1.1875 3.578125 L 1.1875 -9.335938 L 2.628906 -9.335938 L 2.628906 -8.121094 C 2.96875 -8.59375 3.351562 -8.953125 3.78125 -9.1875 C 4.207031 -9.425781 4.726562 -9.546875 5.335938 -9.546875 C 6.132812 -9.546875 6.835938 -9.339844 7.445312 -8.929688 C 8.054688 -8.519531 8.511719 -7.941406 8.824219 -7.195312 C 9.132812 -6.445312 9.289062 -5.628906 9.289062 -4.738281 C 9.289062 -3.78125 9.117188 -2.921875 8.777344 -2.15625 C 8.433594 -1.394531 7.933594 -0.808594 7.28125 -0.398438 C 6.628906 0.0078125 5.941406 0.210938 5.21875 0.210938 C 4.695312 0.210938 4.21875 0.0976562 3.800781 -0.125 C 3.382812 -0.34375 3.039062 -0.625 2.769531 -0.96875 L 2.769531 3.578125 L 1.1875 3.578125 M 2.617188 -4.613281 C 2.617188 -3.414062 2.863281 -2.523438 3.347656 -1.953125 C 3.835938 -1.375 4.421875 -1.089844 5.117188 -1.089844 C 5.820312 -1.089844 6.421875 -1.386719 6.921875 -1.980469 C 7.421875 -2.578125 7.671875 -3.5 7.671875 -4.746094 C 7.671875 -5.933594 7.429688 -6.824219 6.9375 -7.417969 C 6.449219 -8.007812 5.863281 -8.304688 5.1875 -8.304688 C 4.511719 -8.304688 3.914062 -7.992188 3.398438 -7.359375 C 2.878906 -6.730469 2.617188 -5.816406 2.617188 -4.613281 Z M 2.617188 -4.613281 "/>
</g>
<g id="glyph-0-8">
<path d="M 1.152344 0 L 1.152344 -12.882812 L 2.734375 -12.882812 L 2.734375 0 Z M 1.152344 0 "/>
</g>
<g id="glyph-0-9">
<path d="M 4.640625 -1.414062 L 4.867188 -0.015625 C 4.421875 0.0742188 4.023438 0.125 3.671875 0.125 C 3.097656 0.125 2.65625 0.03125 2.335938 -0.148438 C 2.023438 -0.332031 1.796875 -0.570312 1.671875 -0.867188 C 1.539062 -1.160156 1.476562 -1.785156 1.476562 -2.734375 L 1.476562 -8.101562 L 0.316406 -8.101562 L 0.316406 -9.335938 L 1.476562 -9.335938 L 1.476562 -11.644531 L 3.050781 -12.59375 L 3.050781 -9.335938 L 4.640625 -9.335938 L 4.640625 -8.101562 L 3.050781 -8.101562 L 3.050781 -2.644531 C 3.050781 -2.195312 3.078125 -1.902344 3.132812 -1.773438 C 3.1875 -1.644531 3.28125 -1.542969 3.40625 -1.46875 C 3.53125 -1.390625 3.710938 -1.351562 3.945312 -1.351562 C 4.121094 -1.351562 4.351562 -1.375 4.640625 -1.414062 Z M 4.640625 -1.414062 "/>
</g>
<g id="glyph-0-10">
<path d="M 7.304688 0 L 7.304688 -1.371094 C 6.578125 -0.316406 5.589844 0.210938 4.34375 0.210938 C 3.789062 0.210938 3.277344 0.105469 2.800781 -0.105469 C 2.320312 -0.316406 1.96875 -0.582031 1.734375 -0.902344 C 1.503906 -1.21875 1.339844 -1.613281 1.25 -2.074219 C 1.183594 -2.382812 1.152344 -2.875 1.152344 -3.550781 L 1.152344 -9.335938 L 2.734375 -9.335938 L 2.734375 -4.15625 C 2.734375 -3.332031 2.765625 -2.773438 2.828125 -2.488281 C 2.929688 -2.070312 3.140625 -1.746094 3.460938 -1.507812 C 3.785156 -1.269531 4.183594 -1.152344 4.65625 -1.152344 C 5.132812 -1.152344 5.578125 -1.273438 5.992188 -1.515625 C 6.410156 -1.757812 6.703125 -2.089844 6.878906 -2.507812 C 7.050781 -2.929688 7.136719 -3.535156 7.136719 -4.332031 L 7.136719 -9.335938 L 8.71875 -9.335938 L 8.71875 0 Z M 7.304688 0 "/>
</g>
<g id="glyph-0-11">
<path d="M 7.242188 0 L 7.242188 -1.179688 C 6.648438 -0.253906 5.78125 0.210938 4.632812 0.210938 C 3.886719 0.210938 3.203125 0.00390625 2.578125 -0.40625 C 1.957031 -0.8125 1.472656 -1.386719 1.128906 -2.121094 C 0.785156 -2.859375 0.617188 -3.703125 0.617188 -4.65625 C 0.617188 -5.589844 0.769531 -6.433594 1.082031 -7.195312 C 1.390625 -7.953125 1.855469 -8.535156 2.476562 -8.9375 C 3.097656 -9.34375 3.792969 -9.546875 4.5625 -9.546875 C 5.125 -9.546875 5.625 -9.425781 6.0625 -9.1875 C 6.503906 -8.953125 6.859375 -8.640625 7.136719 -8.261719 L 7.136719 -12.882812 L 8.710938 -12.882812 L 8.710938 0 L 7.242188 0 M 2.242188 -4.65625 C 2.242188 -3.460938 2.492188 -2.570312 2.996094 -1.976562 C 3.5 -1.386719 4.09375 -1.089844 4.78125 -1.089844 C 5.472656 -1.089844 6.058594 -1.371094 6.542969 -1.9375 C 7.027344 -2.503906 7.269531 -3.367188 7.269531 -4.527344 C 7.269531 -5.804688 7.023438 -6.742188 6.53125 -7.339844 C 6.039062 -7.9375 5.429688 -8.234375 4.710938 -8.234375 C 4.007812 -8.234375 3.421875 -7.949219 2.949219 -7.375 C 2.476562 -6.800781 2.242188 -5.894531 2.242188 -4.65625 Z M 2.242188 -4.65625 "/>
</g>
<g id="glyph-0-12">
<path d="M 7.578125 -3.007812 L 9.210938 -2.804688 C 8.953125 -1.847656 8.476562 -1.105469 7.777344 -0.578125 C 7.082031 -0.0546875 6.191406 0.210938 5.105469 0.210938 C 3.742188 0.210938 2.660156 -0.210938 1.859375 -1.050781 C 1.058594 -1.890625 0.660156 -3.070312 0.660156 -4.585938 C 0.660156 -6.15625 1.0625 -7.375 1.871094 -8.242188 C 2.679688 -9.109375 3.730469 -9.546875 5.019531 -9.546875 C 6.265625 -9.546875 7.285156 -9.121094 8.078125 -8.269531 C 8.867188 -7.421875 9.265625 -6.226562 9.265625 -4.683594 C 9.265625 -4.589844 9.261719 -4.449219 9.253906 -4.261719 L 2.292969 -4.261719 C 2.351562 -3.238281 2.640625 -2.453125 3.164062 -1.90625 C 3.683594 -1.363281 4.335938 -1.089844 5.117188 -1.089844 C 5.695312 -1.089844 6.191406 -1.242188 6.601562 -1.546875 C 7.011719 -1.851562 7.335938 -2.335938 7.578125 -3.007812 M 2.382812 -5.5625 L 7.59375 -5.5625 C 7.523438 -6.347656 7.324219 -6.9375 6.996094 -7.328125 C 6.492188 -7.9375 5.839844 -8.242188 5.035156 -8.242188 C 4.308594 -8.242188 3.699219 -8 3.203125 -7.515625 C 2.707031 -7.027344 2.433594 -6.378906 2.382812 -5.5625 Z M 2.382812 -5.5625 "/>
</g>
<g id="glyph-0-13">
<path d="M 7.277344 -3.417969 L 8.832031 -3.21875 C 8.664062 -2.144531 8.226562 -1.304688 7.527344 -0.699219 C 6.828125 -0.09375 5.96875 0.210938 4.949219 0.210938 C 3.671875 0.210938 2.644531 -0.207031 1.867188 -1.042969 C 1.089844 -1.875 0.703125 -3.074219 0.703125 -4.632812 C 0.703125 -5.640625 0.871094 -6.523438 1.203125 -7.277344 C 1.539062 -8.03125 2.046875 -8.601562 2.730469 -8.976562 C 3.410156 -9.355469 4.152344 -9.546875 4.957031 -9.546875 C 5.96875 -9.546875 6.800781 -9.289062 7.445312 -8.777344 C 8.089844 -8.261719 8.5 -7.535156 8.683594 -6.59375 L 7.144531 -6.355469 C 7 -6.980469 6.738281 -7.453125 6.367188 -7.769531 C 5.996094 -8.085938 5.546875 -8.242188 5.019531 -8.242188 C 4.222656 -8.242188 3.574219 -7.957031 3.078125 -7.386719 C 2.578125 -6.816406 2.328125 -5.910156 2.328125 -4.675781 C 2.328125 -3.421875 2.570312 -2.511719 3.050781 -1.941406 C 3.53125 -1.375 4.15625 -1.089844 4.929688 -1.089844 C 5.550781 -1.089844 6.070312 -1.28125 6.484375 -1.660156 C 6.902344 -2.042969 7.164062 -2.628906 7.277344 -3.417969 Z M 7.277344 -3.417969 "/>
</g>
<g id="glyph-0-14">
<path d="M 3.78125 0 L 0.226562 -9.335938 L 1.898438 -9.335938 L 3.902344 -3.742188 C 4.117188 -3.140625 4.316406 -2.515625 4.5 -1.863281 C 4.640625 -2.355469 4.835938 -2.945312 5.089844 -3.640625 L 7.164062 -9.335938 L 8.789062 -9.335938 L 5.257812 0 Z M 3.78125 0 "/>
</g>
<g id="glyph-0-15">
<path d="M 7.277344 -1.152344 C 6.691406 -0.652344 6.128906 -0.300781 5.585938 -0.0976562 C 5.042969 0.109375 4.460938 0.210938 3.839844 0.210938 C 2.816406 0.210938 2.027344 -0.0390625 1.476562 -0.539062 C 0.925781 -1.042969 0.648438 -1.679688 0.648438 -2.460938 C 0.648438 -2.917969 0.753906 -3.335938 0.960938 -3.714844 C 1.171875 -4.089844 1.441406 -4.394531 1.78125 -4.625 C 2.117188 -4.851562 2.496094 -5.023438 2.917969 -5.140625 C 3.226562 -5.222656 3.695312 -5.300781 4.324219 -5.378906 C 5.601562 -5.53125 6.542969 -5.710938 7.144531 -5.921875 C 7.152344 -6.140625 7.15625 -6.277344 7.15625 -6.335938 C 7.15625 -6.980469 7.003906 -7.433594 6.707031 -7.699219 C 6.300781 -8.054688 5.699219 -8.234375 4.90625 -8.234375 C 4.160156 -8.234375 3.609375 -8.105469 3.257812 -7.84375 C 2.902344 -7.582031 2.640625 -7.121094 2.46875 -6.460938 L 0.921875 -6.671875 C 1.0625 -7.332031 1.292969 -7.867188 1.617188 -8.273438 C 1.9375 -8.683594 2.40625 -8.996094 3.015625 -9.214844 C 3.625 -9.433594 4.328125 -9.546875 5.132812 -9.546875 C 5.929688 -9.546875 6.578125 -9.449219 7.074219 -9.265625 C 7.574219 -9.074219 7.9375 -8.839844 8.171875 -8.554688 C 8.40625 -8.273438 8.570312 -7.914062 8.664062 -7.480469 C 8.71875 -7.210938 8.746094 -6.722656 8.746094 -6.019531 L 8.746094 -3.910156 C 8.746094 -2.441406 8.777344 -1.511719 8.847656 -1.121094 C 8.914062 -0.730469 9.046875 -0.355469 9.246094 0 L 7.59375 0 C 7.429688 -0.328125 7.324219 -0.710938 7.277344 -1.152344 M 7.144531 -4.683594 C 6.570312 -4.449219 5.710938 -4.25 4.5625 -4.085938 C 3.910156 -3.992188 3.449219 -3.886719 3.179688 -3.769531 C 2.910156 -3.652344 2.703125 -3.480469 2.558594 -3.257812 C 2.410156 -3.03125 2.335938 -2.78125 2.335938 -2.503906 C 2.335938 -2.082031 2.496094 -1.730469 2.816406 -1.449219 C 3.136719 -1.167969 3.601562 -1.027344 4.21875 -1.027344 C 4.828125 -1.027344 5.371094 -1.160156 5.84375 -1.429688 C 6.320312 -1.695312 6.667969 -2.058594 6.890625 -2.523438 C 7.058594 -2.878906 7.144531 -3.40625 7.144531 -4.105469 Z M 7.144531 -4.683594 "/>
</g>
<g id="glyph-0-16">
<path d="M 0.597656 -4.667969 C 0.597656 -6.394531 1.078125 -7.675781 2.039062 -8.507812 C 2.839844 -9.199219 3.820312 -9.546875 4.976562 -9.546875 C 6.257812 -9.546875 7.304688 -9.125 8.121094 -8.285156 C 8.933594 -7.441406 9.34375 -6.28125 9.34375 -4.796875 C 9.34375 -3.597656 9.164062 -2.652344 8.800781 -1.964844 C 8.441406 -1.277344 7.917969 -0.742188 7.230469 -0.359375 C 6.539062 0.0195312 5.789062 0.210938 4.976562 0.210938 C 3.667969 0.210938 2.613281 -0.207031 1.804688 -1.046875 C 1 -1.882812 0.597656 -3.089844 0.597656 -4.667969 M 2.222656 -4.667969 C 2.222656 -3.472656 2.484375 -2.578125 3.007812 -1.980469 C 3.527344 -1.386719 4.183594 -1.089844 4.976562 -1.089844 C 5.757812 -1.089844 6.414062 -1.390625 6.933594 -1.984375 C 7.457031 -2.585938 7.71875 -3.496094 7.71875 -4.71875 C 7.71875 -5.875 7.453125 -6.75 6.929688 -7.34375 C 6.40625 -7.9375 5.753906 -8.234375 4.976562 -8.234375 C 4.183594 -8.234375 3.527344 -7.9375 3.007812 -7.347656 C 2.484375 -6.753906 2.222656 -5.863281 2.222656 -4.667969 Z M 2.222656 -4.667969 "/>
</g>
<g id="glyph-0-17">
<path d="M 1.1875 0 L 1.1875 -9.335938 L 2.609375 -9.335938 L 2.609375 -8.007812 C 3.296875 -9.03125 4.285156 -9.546875 5.582031 -9.546875 C 6.144531 -9.546875 6.660156 -9.445312 7.132812 -9.242188 C 7.605469 -9.039062 7.957031 -8.773438 8.191406 -8.445312 C 8.425781 -8.117188 8.589844 -7.726562 8.683594 -7.277344 C 8.742188 -6.984375 8.773438 -6.472656 8.773438 -5.738281 L 8.773438 0 L 7.1875 0 L 7.1875 -5.679688 C 7.1875 -6.320312 7.128906 -6.804688 7.003906 -7.125 C 6.882812 -7.441406 6.664062 -7.699219 6.351562 -7.886719 C 6.035156 -8.078125 5.667969 -8.171875 5.246094 -8.171875 C 4.574219 -8.171875 3.992188 -7.960938 3.503906 -7.53125 C 3.011719 -7.105469 2.769531 -6.292969 2.769531 -5.097656 L 2.769531 0 Z M 1.1875 0 "/>
</g>
<g id="glyph-0-18">
<path d="M 1.320312 0 L 1.320312 -12.882812 L 3.023438 -12.882812 L 3.023438 -1.519531 L 9.367188 -1.519531 L 9.367188 0 Z M 1.320312 0 "/>
</g>
<g id="glyph-0-19">
<path d="M 2.910156 0 L 0.0546875 -9.335938 L 1.6875 -9.335938 L 3.171875 -3.945312 L 3.726562 -1.941406 C 3.75 -2.042969 3.910156 -2.683594 4.210938 -3.867188 L 5.695312 -9.335938 L 7.320312 -9.335938 L 8.71875 -3.921875 L 9.183594 -2.136719 L 9.71875 -3.9375 L 11.320312 -9.335938 L 12.859375 -9.335938 L 9.941406 0 L 8.296875 0 L 6.8125 -5.589844 L 6.453125 -7.179688 L 4.5625 0 Z M 2.910156 0 "/>
</g>
</g>
</defs>
<rect x="-43.2" y="-5.7" width="518.4" height="68.4" fill="rgb(100%, 100%, 100%)" fill-opacity="1"/>
<path fill="none" stroke-width="7.5" stroke-linecap="round" stroke-linejoin="round" stroke="rgb(80.392157%, 0%, 0%)" stroke-opacity="1" stroke-miterlimit="10" d="M 87.527344 17.699219 L 119.929688 17.699219 "/>
<path fill="none" stroke-width="7.5" stroke-linecap="round" stroke-linejoin="round" stroke="rgb(0%, 0%, 80.392157%)" stroke-opacity="1" stroke-miterlimit="10" d="M 87.527344 39.300781 L 119.929688 39.300781 "/>
<path fill-rule="nonzero" fill="rgb(80.392157%, 0%, 0%)" fill-opacity="1" stroke-width="7.5" stroke-linecap="round" stroke-linejoin="round" stroke="rgb(80.392157%, 0%, 0%)" stroke-opacity="1" stroke-miterlimit="10" d="M 106.429688 17.699219 C 106.429688 21.300781 101.027344 21.300781 101.027344 17.699219 C 101.027344 14.101562 106.429688 14.101562 106.429688 17.699219 "/>
<path fill-rule="nonzero" fill="rgb(0%, 0%, 80.392157%)" fill-opacity="1" stroke-width="7.5" stroke-linecap="round" stroke-linejoin="round" stroke="rgb(0%, 0%, 80.392157%)" stroke-opacity="1" stroke-miterlimit="10" d="M 106.429688 39.300781 C 106.429688 42.898438 101.027344 42.898438 101.027344 39.300781 C 101.027344 35.699219 106.429688 35.699219 106.429688 39.300781 "/>
<g fill="rgb(0%, 0%, 0%)" fill-opacity="1">
<use xlink:href="#glyph-0-0" x="136.128906" y="24.640625"/>
<use xlink:href="#glyph-0-1" x="149.12793" y="24.640625"/>
<use xlink:href="#glyph-0-2" x="153.126953" y="24.640625"/>
<use xlink:href="#glyph-0-3" x="163.137695" y="24.640625"/>
<use xlink:href="#glyph-0-4" x="173.148438" y="24.640625"/>
<use xlink:href="#glyph-0-5" x="178.149414" y="24.640625"/>
<use xlink:href="#glyph-0-6" x="190.155273" y="24.640625"/>
<use xlink:href="#glyph-0-7" x="205.149414" y="24.640625"/>
<use xlink:href="#glyph-0-8" x="215.160156" y="24.640625"/>
<use xlink:href="#glyph-0-1" x="219.15918" y="24.640625"/>
<use xlink:href="#glyph-0-9" x="223.158203" y="24.640625"/>
<use xlink:href="#glyph-0-10" x="228.15918" y="24.640625"/>
<use xlink:href="#glyph-0-11" x="238.169922" y="24.640625"/>
<use xlink:href="#glyph-0-12" x="248.180664" y="24.640625"/>
<use xlink:href="#glyph-0-4" x="258.191406" y="24.640625"/>
<use xlink:href="#glyph-0-5" x="263.192383" y="24.640625"/>
<use xlink:href="#glyph-0-13" x="275.198242" y="24.640625"/>
<use xlink:href="#glyph-0-9" x="284.198242" y="24.640625"/>
<use xlink:href="#glyph-0-1" x="289.199219" y="24.640625"/>
<use xlink:href="#glyph-0-14" x="293.198242" y="24.640625"/>
<use xlink:href="#glyph-0-15" x="302.198242" y="24.640625"/>
<use xlink:href="#glyph-0-9" x="312.208984" y="24.640625"/>
<use xlink:href="#glyph-0-1" x="317.209961" y="24.640625"/>
<use xlink:href="#glyph-0-16" x="321.208984" y="24.640625"/>
<use xlink:href="#glyph-0-17" x="331.219727" y="24.640625"/>
</g>
<g fill="rgb(0%, 0%, 0%)" fill-opacity="1">
<use xlink:href="#glyph-0-18" x="136.128906" y="46.242188"/>
<use xlink:href="#glyph-0-16" x="146.139648" y="46.242188"/>
<use xlink:href="#glyph-0-19" x="156.150391" y="46.242188"/>
<use xlink:href="#glyph-0-4" x="169.149414" y="46.242188"/>
<use xlink:href="#glyph-0-5" x="174.150391" y="46.242188"/>
<use xlink:href="#glyph-0-6" x="186.15625" y="46.242188"/>
<use xlink:href="#glyph-0-7" x="201.150391" y="46.242188"/>
<use xlink:href="#glyph-0-8" x="211.161133" y="46.242188"/>
<use xlink:href="#glyph-0-1" x="215.160156" y="46.242188"/>
<use xlink:href="#glyph-0-9" x="219.15918" y="46.242188"/>
<use xlink:href="#glyph-0-10" x="224.160156" y="46.242188"/>
<use xlink:href="#glyph-0-11" x="234.170898" y="46.242188"/>
<use xlink:href="#glyph-0-12" x="244.181641" y="46.242188"/>
<use xlink:href="#glyph-0-4" x="254.192383" y="46.242188"/>
<use xlink:href="#glyph-0-5" x="259.193359" y="46.242188"/>
<use xlink:href="#glyph-0-13" x="271.199219" y="46.242188"/>
<use xlink:href="#glyph-0-9" x="280.199219" y="46.242188"/>
<use xlink:href="#glyph-0-1" x="285.200195" y="46.242188"/>
<use xlink:href="#glyph-0-14" x="289.199219" y="46.242188"/>
<use xlink:href="#glyph-0-15" x="298.199219" y="46.242188"/>
<use xlink:href="#glyph-0-9" x="308.209961" y="46.242188"/>
<use xlink:href="#glyph-0-1" x="313.210938" y="46.242188"/>
<use xlink:href="#glyph-0-16" x="317.209961" y="46.242188"/>
<use xlink:href="#glyph-0-17" x="327.220703" y="46.242188"/>
</g>
</svg>
